<svg width="137" height="48" viewBox="0 0 137 48" fill="none" xmlns="http://www.w3.org/2000/svg">
<path d="M33.6396 8.15771H30.7981L30.0954 9.01322C29.9732 9.13544 30.0037 9.25765 30.1259 9.2882L31.0731 9.6854L33.7313 8.46325C33.884 8.40214 33.8535 8.15771 33.6396 8.15771Z" fill="#078459"/>
<path d="M28.0178 8.55484C27.7123 8.2493 27.2234 8.2493 26.8874 8.55484C26.5818 8.86037 26.5818 9.37979 26.8874 9.68533C27.1929 9.99086 27.6818 9.99086 28.0178 9.68533C28.3234 9.34923 28.3234 8.86037 28.0178 8.55484Z" fill="white"/>
<path d="M23.0681 22.06H19.5545C18.6684 22.5794 18.3629 22.7627 17.1102 23.2516C17.0185 23.2821 16.9879 23.3738 17.0185 23.496L20.1655 32.2649H21.8765L19.0045 24.2293H19.0962C20.9599 24.2293 25.4513 23.7404 27.8651 19.8295C27.1012 20.9295 25.3597 22.06 23.0681 22.06ZM23.557 16.8658C23.7403 16.5603 23.9236 16.2853 24.107 15.9798C24.0153 15.9492 23.9542 15.9492 23.8625 16.0409C20.2266 19.8906 16.713 20.3795 14.0242 20.3795H9.89947C9.77725 20.3795 9.68559 20.2267 9.7467 20.1045C12.9243 15.7048 16.4685 12.2522 19.0656 9.99122L12.1604 15.7659C11.641 16.2242 10.9689 16.4992 10.0828 16.4992H1.40552C1.16109 16.4992 1.25275 16.713 1.28331 16.8353C1.89438 18.699 3.54428 20.3795 6.38578 20.3795L4.33868 22.4572C4.24702 22.5488 4.24702 22.7321 4.4609 22.7321H12.2216C17.8434 22.7016 21.296 20.2573 23.557 16.8658ZM21.2655 25.7264L23.5876 32.2344H25.2986L22.8543 25.3903C22.3043 25.5431 21.7543 25.6653 21.2655 25.7264ZM33.6703 8.12744H30.7982L30.0955 8.98295C29.9733 9.10516 30.0038 9.22738 30.1261 9.25793L31.0732 9.65513L33.7314 8.43298C33.9147 8.37187 33.8842 8.12744 33.6703 8.12744ZM28.0178 9.68569C27.7123 9.99122 27.2235 9.99122 26.8874 9.68569C26.5818 9.38015 26.5818 8.89129 26.8874 8.5552C27.1929 8.24966 27.6818 8.24966 27.9873 8.5552C27.4373 8.00523 26.5207 8.00523 25.9707 8.5552C25.4208 9.10516 25.4208 10.0218 25.9707 10.5717C26.5207 11.1217 27.4373 11.1217 27.9873 10.5717C28.5373 10.0218 28.5373 9.10516 27.9873 8.5552C28.3234 8.86073 28.3234 9.34959 28.0178 9.68569Z" fill="#00965A"/>
<path d="M27.04 8.61591C26.765 8.89089 26.765 9.28809 27.04 9.56307C27.2844 9.8075 27.7122 9.8075 27.9871 9.56307C28.2316 9.28809 28.2316 8.89089 27.9871 8.61591C27.7122 8.34092 27.2844 8.34092 27.04 8.61591Z" fill="white"/>
<path d="M27.8344 19.7988C30.2482 15.888 31.1037 9.68554 31.1037 9.68554L30.1565 9.28834C30.0343 9.25779 30.0037 9.13558 30.1259 9.01336L30.8287 8.15786C30.3704 7.30235 28.8427 5.92743 26.5511 5.92743C25.2068 5.92743 24.0152 6.29408 22.9458 6.99681C22.9458 6.99681 21.3876 8.03564 19.1266 9.99108C16.5295 12.2521 12.9853 15.7046 9.80768 20.1044C9.71602 20.2266 9.83824 20.3794 9.96045 20.3794H14.0852C16.7739 20.3794 20.2876 19.8905 23.9235 16.0407C24.0152 15.9491 24.0763 15.9491 24.168 15.9796C24.2596 16.0102 24.2596 16.1018 24.2291 16.1935C23.6485 17.5684 22.2431 20.4099 19.6154 22.0598H23.1291C25.3596 22.0598 27.1011 20.9293 27.8344 19.7988ZM26.0012 10.5716C25.4512 10.0216 25.4512 9.10502 26.0012 8.55506C26.5511 8.00509 27.4678 8.00509 28.0177 8.55506C28.5677 9.10502 28.5677 10.0216 28.0177 10.5716C27.4678 11.1216 26.5511 11.1216 26.0012 10.5716ZM29.2704 20.7155C28.1094 22.5792 26.4595 23.9847 24.3818 24.8708L27.0095 32.2648H34.6785C33.1508 27.7123 31.5009 23.4347 29.9732 19.4627C29.7593 19.8905 29.5149 20.3183 29.2704 20.7155ZM0.885986 32.2648H8.64664L11.1521 24.4125H3.57472C2.71921 26.7651 1.83315 29.3316 0.885986 32.2648ZM11.0909 14.4214L15.5823 10.6633C16.3156 8.67727 17.0795 6.69128 17.8739 4.98026C18.2711 5.89688 18.6377 6.81349 19.0349 7.76066C20.7765 6.32463 21.907 5.56078 21.9681 5.53023L21.9986 5.49968C22.7319 5.04137 23.4958 4.67473 24.2902 4.46085C23.2819 2.23042 22.5486 0.702737 22.2125 0H13.5352C12.802 1.52769 10.1132 7.11903 6.93563 14.7575H10.1438C10.6326 14.7575 10.9076 14.6047 11.0909 14.4214Z" fill="#E3000B"/>
<path d="M47.4194 26.2457C46.9 26.8874 45.4946 27.5901 44.3641 27.5901C42.4697 27.5901 41.4309 26.5818 41.4309 24.718V12.5882H35.0452V25.5736C35.0452 30.3094 37.1839 32.662 41.6448 32.662C44.9751 32.662 46.9 31.6538 48.2749 30.0955L48.6721 32.2648H53.8357V12.6188H47.45V26.2457H47.4194ZM67.4627 27.2235C64.3157 27.2235 62.6658 25.268 62.6658 22.2737C62.6658 19.4017 64.3157 17.6601 67.4016 17.6601C69.0821 17.6601 70.4264 18.1184 71.618 18.8823L72.5346 13.5048C70.8236 12.7715 68.9598 12.191 65.8739 12.191C59.5187 12.191 56.0356 15.8269 56.0356 22.5182C56.0356 29.24 59.3049 32.662 65.6906 32.662C68.746 32.662 71.7097 31.7149 72.9318 30.8899L72.0458 25.9096C70.6097 26.6429 69.2348 27.2235 67.4627 27.2235ZM87.0171 12.2216C84.3895 12.2216 82.6785 12.8326 81.3647 13.902V5.31641H74.8262V32.2954H81.2119V18.6684C81.7313 18.0268 83.1368 17.324 84.2673 17.324C86.1616 17.324 87.2004 18.3629 87.2004 20.1961V32.2954H93.5862V19.31C93.5862 14.5436 91.478 12.2216 87.0171 12.2216ZM129.915 12.2216C126.584 12.2216 124.69 13.2298 123.284 14.7881L122.887 12.6188H117.724V32.2648H124.109V18.6378C124.629 17.9962 126.034 17.2935 127.165 17.2935C129.059 17.2935 130.098 18.3323 130.098 20.1655V32.2648H136.453V19.2795C136.453 14.5436 134.314 12.2216 129.915 12.2216ZM95.8472 23.1904C95.8472 29.8205 98.2915 32.6926 103.058 32.6926C105.96 32.6926 107.977 31.7149 109.077 30.1261L109.413 32.2954H114.607V13.4743C112.53 12.8326 110.146 12.2521 105.685 12.2521C99.3303 12.2216 95.8472 16.1019 95.8472 23.1904ZM108.069 26.2457C107.488 26.8874 106.541 27.5901 105.013 27.5901C103.302 27.5901 102.355 26.0013 102.355 22.9154C102.355 19.1573 103.363 17.2629 105.41 17.2629C106.602 17.2629 107.213 17.3546 108.069 17.5379V26.2457Z" fill="#E3000B"/>
<path d="M10.2661 36.8479L10.2355 37.0313L6.4774 44.9752C6.11075 45.7391 5.74411 46.3502 5.37746 46.7779C5.01082 47.2057 4.58306 47.5112 4.12476 47.7251C3.66645 47.9084 3.11648 48.0001 2.47485 48.0001C2.13876 48.0001 1.83323 47.9695 1.5888 47.9084C1.31381 47.8473 1.03883 47.7862 0.733291 47.664L1.37492 45.6474C1.74156 45.8002 2.10821 45.8613 2.50541 45.8613C3.08593 45.8613 3.60534 45.5252 4.00254 44.8225L0.0305533 37.0007L0 36.8174H2.87205L5.16359 42.1032L7.45512 36.8174H10.2661V36.8479Z" fill="#E3000B"/>
<path d="M30.8287 47.6637V47.8776H27.9261L24.9318 43.4167H24.1985V47.847H21.5098V36.8477H24.1985V41.4307H24.8401L27.8344 36.8477H30.5537V37.0921L27.2233 42.164V42.3168L30.8287 47.6637Z" fill="#E3000B"/>
<path d="M49.1915 37.306C49.8636 37.6115 50.3831 38.0393 50.7497 38.5892C51.1163 39.1392 51.2997 39.7808 51.2997 40.5447C51.2997 41.3085 51.1163 41.9501 50.7497 42.5001C50.3831 43.0501 49.8636 43.4778 49.1915 43.7834C48.5193 44.0889 47.7249 44.2417 46.8388 44.2417H45.8917V47.847H43.1724V36.8477H46.8083C47.7249 36.8477 48.5193 37.0004 49.1915 37.306ZM45.8917 38.8642V42.2557H46.8694C47.3888 42.2557 47.8165 42.1029 48.0915 41.7974C48.3971 41.4918 48.5498 41.0946 48.5498 40.5752C48.5498 40.0558 48.3971 39.628 48.0915 39.3531C47.786 39.0475 47.3888 38.8948 46.8388 38.8948H45.8917V38.8642Z" fill="#E3000B"/>
<path d="M70.1208 45.3722H66.3933L65.6906 47.847H62.9102L66.5461 36.8477H69.9681L73.604 47.847H70.8236L70.1208 45.3722ZM69.5403 43.3862L68.807 40.8808C68.7765 40.8196 68.7154 40.5752 68.5932 40.2086L68.3182 39.2309H68.196C68.1348 39.5364 68.0432 39.8419 67.921 40.178C67.8293 40.5141 67.7377 40.7585 67.7071 40.8808L66.9738 43.3862H69.5403V43.3862Z" fill="#E3000B"/>
<path d="M86.4976 36.2368C86.2226 35.9924 86.0698 35.6563 86.0698 35.2285C86.0698 34.8008 86.2226 34.4647 86.4976 34.1897C86.7726 33.9147 87.1392 33.7925 87.5975 33.7925C88.0558 33.7925 88.4225 33.9147 88.728 34.1897C89.003 34.4647 89.1558 34.8008 89.1558 35.2285C89.1558 35.6563 89.003 35.9924 88.728 36.2368C88.453 36.4812 88.0864 36.634 87.5975 36.634C87.1392 36.634 86.7726 36.5118 86.4976 36.2368ZM90.714 47.8472H87.9947V36.8479H90.714V47.8472ZM89.9196 36.2368C89.6446 35.9924 89.4918 35.6563 89.4918 35.2285C89.4918 34.8008 89.6446 34.4647 89.9196 34.1897C90.1946 33.9147 90.5612 33.7925 91.0195 33.7925C91.4778 33.7925 91.8445 33.9147 92.15 34.1897C92.425 34.4647 92.5778 34.8008 92.5778 35.2285C92.5778 35.6563 92.425 35.9924 92.15 36.2368C91.875 36.4812 91.5084 36.634 91.0195 36.634C90.5918 36.634 90.2251 36.5118 89.9196 36.2368Z" fill="#E3000B"/>
<path d="M114.974 36.8174V47.8473H112.255V43.5698H108.435V47.8473H105.716V36.8174H108.435V41.4004H112.255V36.8174H114.974Z" fill="#E3000B"/>
<path d="M133.245 45.3722H129.517L128.815 47.847H126.034L129.67 36.8477H133.092L136.728 47.847H133.948L133.245 45.3722ZM132.695 43.3862L131.962 40.8808C131.931 40.8196 131.87 40.5752 131.748 40.2086L131.473 39.2309H131.351C131.289 39.5364 131.198 39.8419 131.076 40.178C130.984 40.5141 130.892 40.7585 130.862 40.8808L130.128 43.3862H132.695V43.3862Z" fill="#E3000B"/>
</svg>
